# xmcd CD database file
#
# Track frame offsets:
#	150
#	14020
#	28572
#	42922
#	58192
#	73312
#	87615
#	100657
#	115330
#	129087
#	142965
#	157290
#	172222
#	186637
#	200182
#	214305
#	228405
#	242312
#	256070
#	269367
#	284677
#	298650
#
# Disc length: 4161 seconds
#
# Revision: 2
# Processed by: cddbd v1.5.1PL0 Copyright (c) Steve Scherf et al.
# Submitted via: CDex 1.50
#
DISCID=62103f16
DTITLE=Blind Willie Johnson - Dark Was The Night
DYEAR=1998
DGENRE=Blues
TTITLE0=I Know His Blood Can Make Me Whole
TTITLE1=Jesus Make Up My Dying Bed
TTITLE2=It's Nobody's Fault But Mine
TTITLE3=Mother's Children Have A Hard Time
TTITLE4=Dark Was The Night
TTITLE5=If I Had My Way I'd Tear The Building Down
TTITLE6=Bye And Bye I'm Goin' To See The King
TTITLE7=The Soul Of A Man
TTITLE8=Lord I Just Can't Keep From Crying
TTITLE9=Keep Your Lamp Trimmed And Burning
TTITLE10=Let Your Light Shine On Me
TTITLE11=John The Revelator
TTITLE12=Praise God I'm Satisfied
TTITLE13=God Moves On The Water
TTITLE14=Trouble Will Soon Be Over
TTITLE15=Church, I'm Fully Saved Today
TTITLE16=Go With Me To That Land
TTITLE17=When The War Was On
TTITLE18=Take Your Burden To The Lord And Leave It There
TTITLE19=I'm Gonna Run To The City Of Refuge
TTITLE20=You'll Need Somebody On Your Bond
TTITLE21=Take Your Stand
EXTD=YEAR: 1998
EXTT0=
EXTT1=
EXTT2=
EXTT3=
EXTT4=
EXTT5=
EXTT6=
EXTT7=
EXTT8=
EXTT9=
EXTT10=
EXTT11=
EXTT12=
EXTT13=
EXTT14=
EXTT15=
EXTT16=
EXTT17=
EXTT18=
EXTT19=
EXTT20=
EXTT21=
PLAYORDER=
